<svg width="16" height="16" viewBox="0 0 16 16" fill="none" xmlns="http://www.w3.org/2000/svg">
<path d="M14.3922 7.68281C14.3138 6.10091 13.651 4.59948 12.5258 3.47422C11.3255 2.27399 9.69739 1.6 8 1.6C6.30261 1.6 4.67445 2.27399 3.47422 3.47422C2.27399 4.67445 1.6 6.30261 1.6 8L1.60781 8.31484C1.64391 9.04774 1.80609 9.76984 2.0875 10.4492C2.40913 11.2256 2.87996 11.9315 3.47422 12.5258C4.06847 13.12 4.77436 13.5909 5.55078 13.9125C6.32726 14.2341 7.15954 14.4 8 14.4L8.31484 14.3922C9.04774 14.3561 9.76984 14.1939 10.4492 13.9125C11.2256 13.5909 11.9315 13.12 12.5258 12.5258C13.12 11.9315 13.5909 11.2256 13.9125 10.4492C14.2341 9.67274 14.4 8.84046 14.4 8L14.3922 7.68281ZM15.9906 8.39375C15.9455 9.30981 15.7431 10.2126 15.3914 11.0617C14.9894 12.0323 14.3999 12.9142 13.657 13.657C12.9142 14.3999 12.0323 14.9894 11.0617 15.3914C10.2126 15.7431 9.30981 15.9455 8.39375 15.9906L8 16C6.94943 16 5.90889 15.7934 4.93828 15.3914C3.96771 14.9894 3.08582 14.3999 2.34297 13.657C1.60012 12.9142 1.01063 12.0323 0.608594 11.0617C0.256858 10.2126 0.0545145 9.30981 0.009375 8.39375L0 8C3.16163e-08 5.87827 0.842678 3.84326 2.34297 2.34297C3.84326 0.842678 5.87827 0 8 0C10.1217 0 12.1567 0.842678 13.657 2.34297C15.1573 3.84326 16 5.87827 16 8L15.9906 8.39375Z" fill="#06104A"/>
<path d="M7.2002 4.00001C7.2002 3.55818 7.55837 3.20001 8.0002 3.20001C8.44202 3.20001 8.8002 3.55818 8.8002 4.00001V7.66876L10.9658 9.83439L11.0205 9.89532C11.2768 10.2095 11.2587 10.6727 10.9658 10.9656C10.6729 11.2585 10.2097 11.2766 9.89551 11.0203L9.83457 10.9656L7.43457 8.56564C7.28454 8.41561 7.2002 8.21219 7.2002 8.00001V4.00001Z" fill="#06104A"/>
</svg>
