<svg width="16" height="17" viewBox="0 0 16 17" fill="none" xmlns="http://www.w3.org/2000/svg">
<path d="M14.3922 7.93281C14.3138 6.35091 13.651 4.84948 12.5258 3.72422C11.3255 2.52399 9.69739 1.85 8 1.85C6.30261 1.85 4.67445 2.52399 3.47422 3.72422C2.27399 4.92445 1.6 6.55261 1.6 8.25L1.60781 8.56484C1.64391 9.29774 1.80609 10.0198 2.0875 10.6992C2.40913 11.4756 2.87996 12.1815 3.47422 12.7758C4.06847 13.37 4.77436 13.8409 5.55078 14.1625C6.32726 14.4841 7.15954 14.65 8 14.65L8.31484 14.6422C9.04774 14.6061 9.76984 14.4439 10.4492 14.1625C11.2256 13.8409 11.9315 13.37 12.5258 12.7758C13.12 12.1815 13.5909 11.4756 13.9125 10.6992C14.2341 9.92274 14.4 9.09046 14.4 8.25L14.3922 7.93281ZM15.9906 8.64375C15.9455 9.55981 15.7431 10.4626 15.3914 11.3117C14.9894 12.2823 14.3999 13.1642 13.657 13.907C12.9142 14.6499 12.0323 15.2394 11.0617 15.6414C10.2126 15.9931 9.30981 16.1955 8.39375 16.2406L8 16.25C6.94943 16.25 5.90889 16.0434 4.93828 15.6414C3.96771 15.2394 3.08582 14.6499 2.34297 13.907C1.60012 13.1642 1.01063 12.2823 0.608594 11.3117C0.256858 10.4626 0.0545145 9.55981 0.009375 8.64375L0 8.25C3.16163e-08 6.12827 0.842678 4.09326 2.34297 2.59297C3.84326 1.09268 5.87827 0.25 8 0.25C10.1217 0.25 12.1567 1.09268 13.657 2.59297C15.1573 4.09326 16 6.12827 16 8.25L15.9906 8.64375Z" fill="#06104A"/>
<path d="M7.2002 4.25001C7.2002 3.80818 7.55837 3.45001 8.0002 3.45001C8.44202 3.45001 8.8002 3.80818 8.8002 4.25001V7.91876L10.9658 10.0844L11.0205 10.1453C11.2768 10.4595 11.2587 10.9227 10.9658 11.2156C10.6729 11.5085 10.2097 11.5266 9.89551 11.2703L9.83457 11.2156L7.43457 8.81564C7.28454 8.66561 7.2002 8.46218 7.2002 8.25001V4.25001Z" fill="#06104A"/>
</svg>
