<svg width="86" height="40" viewBox="0 0 86 40" fill="none" xmlns="http://www.w3.org/2000/svg">
<path d="M39.5597 7.8432C44.867 7.8432 49.5598 11.9556 49.5598 17.6456C49.5598 23.3357 44.87 27.4511 39.5597 27.4511C34.2494 27.4511 29.5596 23.3386 29.5596 17.6456C29.5596 11.9527 34.2494 7.8432 39.5597 7.8432ZM39.5597 23.9888C42.7876 23.9888 45.5204 21.2601 45.5204 17.6456C45.5204 14.0312 42.7906 11.3025 39.5597 11.3025C36.3287 11.3025 33.596 14.0312 33.596 17.6456C33.596 21.2601 36.3258 23.9888 39.5597 23.9888Z" fill="#FEFFF3"/>
<path d="M51.3242 0H55.2458V27.451H51.3242V0Z" fill="#FEFFF3"/>
<path d="M67.2067 12.5103H62.7405V21.491C62.7405 23.0403 63.5496 23.9681 64.7438 23.9681C65.2423 23.9681 65.7051 23.815 66.0514 23.5808L67.1291 27.0248C66.4365 27.295 65.6663 27.4511 64.8184 27.4511C61.203 27.4511 58.8923 24.935 58.8923 21.4129V12.5103H56.8145V9.02728H58.8923V3.52954L62.7405 3.56857V9.02728H67.2067V12.5103Z" fill="#FEFFF3"/>
<path d="M69.2518 7.81546L72.9601 7.81629L72.7869 25.3588L81.2875 7.8162L85.5038 7.81619L70.9899 37.2735L66.7046 37.2735L71.8035 27.8498L69.0302 32.9754L69.2547 7.81624L69.2518 7.81546Z" fill="#FEFFF3"/>
<path d="M31.8692 19.011C32.9507 20.8452 27.0883 27.7319 25.0472 27.8847C24.5165 27.9244 23.886 27.7272 23.1148 27.2959C21.6978 26.4648 21.654 26.4274 21.6297 26.1032C21.6176 25.9411 21.6749 25.6108 21.7671 25.1964L23.2664 18.8122C20.3875 22.4914 17.9135 26.1032 16.5653 28.6421C15.6203 28.6314 13.2615 27.83 13.2129 27.1817C13.2008 27.0196 13.2173 26.6924 13.4393 25.82L16.0014 15.1157C12.9195 19.4122 10.6646 23.5474 8.4417 28.6622C7.61919 28.6423 5.26032 27.8409 5.21177 27.1926C5.19963 27.0305 5.257 26.7002 5.44124 25.8715C6.53457 20.7368 6.42038 19.4268 7.67396 14.2394C5.90097 16.3281 4.16881 18.4137 2.6664 20.2784C1.89519 19.8472 0.750226 18.2622 0.701675 17.6139C0.683468 17.3707 0.793798 17.1995 1.51176 16.3715C3.9619 13.4579 8.50764 7.74564 9.34899 7.55343C10.1903 7.36121 12.4895 8.37771 12.5381 9.02605C12.5502 9.18814 12.4904 9.50485 12.3086 10.3472C11.9391 12.0594 11.6449 13.628 11.367 16.2363C14.0769 12.4068 16.9624 7.88647 17.9135 7.97825C18.8645 8.07002 20.2235 8.60183 20.6273 9.06058C20.8965 9.3664 20.9464 9.48491 20.4993 11.1891L18.9547 18.8873C21.6297 15.1157 24.872 8.18688 25.9056 8.18688C26.9393 8.18688 28.0573 8.96297 28.4612 9.42171C28.7304 9.72754 28.7783 11.0789 28.4612 12.2554C28.144 13.4318 26.2492 22.0084 26.2492 22.0084L25.8308 23.5474C27.3878 22.4121 29.0343 18.9156 29.8805 17.0593C31.1507 17.5754 31.6347 18.621 31.8692 19.011Z" fill="#FEFFF3"/>
</svg>
