<svg width="17" height="16" viewBox="0 0 17 16" fill="none" xmlns="http://www.w3.org/2000/svg">
<path d="M5.14 -0.000488281H11.86C14.42 -0.000488281 16.5 2.07951 16.5 4.63951V11.3595C16.5 12.5901 16.0111 13.7703 15.141 14.6405C14.2708 15.5107 13.0906 15.9995 11.86 15.9995H5.14C2.58 15.9995 0.5 13.9195 0.5 11.3595V4.63951C0.5 3.40891 0.988856 2.22871 1.85902 1.35854C2.72919 0.488368 3.9094 -0.000488281 5.14 -0.000488281ZM4.98 1.59951C4.21618 1.59951 3.48364 1.90294 2.94353 2.44304C2.40343 2.98315 2.1 3.71569 2.1 4.47951V11.5195C2.1 13.1115 3.388 14.3995 4.98 14.3995H12.02C12.7838 14.3995 13.5164 14.0961 14.0565 13.556C14.5966 13.0159 14.9 12.2833 14.9 11.5195V4.47951C14.9 2.88751 13.612 1.59951 12.02 1.59951H4.98ZM12.7 2.79951C12.9652 2.79951 13.2196 2.90487 13.4071 3.09241C13.5946 3.27994 13.7 3.5343 13.7 3.79951C13.7 4.06473 13.5946 4.31908 13.4071 4.50662C13.2196 4.69415 12.9652 4.79951 12.7 4.79951C12.4348 4.79951 12.1804 4.69415 11.9929 4.50662C11.8054 4.31908 11.7 4.06473 11.7 3.79951C11.7 3.5343 11.8054 3.27994 11.9929 3.09241C12.1804 2.90487 12.4348 2.79951 12.7 2.79951ZM8.5 3.99951C9.56087 3.99951 10.5783 4.42094 11.3284 5.17108C12.0786 5.92123 12.5 6.93865 12.5 7.99951C12.5 9.06038 12.0786 10.0778 11.3284 10.8279C10.5783 11.5781 9.56087 11.9995 8.5 11.9995C7.43913 11.9995 6.42172 11.5781 5.67157 10.8279C4.92143 10.0778 4.5 9.06038 4.5 7.99951C4.5 6.93865 4.92143 5.92123 5.67157 5.17108C6.42172 4.42094 7.43913 3.99951 8.5 3.99951ZM8.5 5.59951C7.86348 5.59951 7.25303 5.85237 6.80294 6.30246C6.35286 6.75254 6.1 7.36299 6.1 7.99951C6.1 8.63603 6.35286 9.24648 6.80294 9.69657C7.25303 10.1467 7.86348 10.3995 8.5 10.3995C9.13652 10.3995 9.74697 10.1467 10.1971 9.69657C10.6471 9.24648 10.9 8.63603 10.9 7.99951C10.9 7.36299 10.6471 6.75254 10.1971 6.30246C9.74697 5.85237 9.13652 5.59951 8.5 5.59951Z" fill="#FEFFF3"/>
</svg>
