<svg width="21" height="16" viewBox="0 0 21 16" fill="none" xmlns="http://www.w3.org/2000/svg">
<path d="M10.5 -0.00048818C12.7308 -0.00048818 14.4701 -0.00118426 15.7891 0.112793C17.0841 0.224708 18.183 0.45836 18.9893 1.08545C19.8487 1.7541 20.1932 2.71658 20.3496 3.81104C20.5027 4.88279 20.5 6.28074 20.5 7.99951C20.5 9.71828 20.5027 11.1162 20.3496 12.188C20.1932 13.2824 19.8487 14.2449 18.9893 14.9136C18.183 15.5407 17.0841 15.7743 15.7891 15.8862C14.4701 16.0002 12.7308 15.9995 10.5 15.9995C8.26916 15.9995 6.52995 16.0002 5.21094 15.8862C3.91593 15.7743 2.81701 15.5407 2.01075 14.9136C1.15129 14.2449 0.806761 13.2824 0.650394 12.188C0.497286 11.1162 0.500003 9.71828 0.500003 7.99951C0.500003 6.28075 0.497286 4.88279 0.650394 3.81104C0.806761 2.71659 1.15129 1.7541 2.01075 1.08545C2.81701 0.458358 3.91593 0.224708 5.21094 0.112793C6.52995 -0.00118468 8.26916 -0.000488181 10.5 -0.00048818ZM10.5 1.99951C8.23094 1.99951 6.59503 2.00022 5.38282 2.10498C4.14712 2.21178 3.55807 2.4158 3.23926 2.66357C2.97401 2.86989 2.75573 3.22014 2.63086 4.09424C2.50274 4.99122 2.5 6.21837 2.5 7.99951C2.5 9.78065 2.50274 11.0078 2.63086 11.9048C2.75573 12.7789 2.97401 13.1291 3.23926 13.3354C3.55807 13.5832 4.14712 13.7872 5.38282 13.894C6.59503 13.9988 8.23094 13.9995 10.5 13.9995C12.7691 13.9995 14.405 13.9988 15.6172 13.894C16.8529 13.7872 17.4419 13.5832 17.7607 13.3354C18.026 13.1291 18.2443 12.7789 18.3691 11.9048C18.4973 11.0078 18.5 9.78065 18.5 7.99951C18.5 6.21837 18.4973 4.99122 18.3691 4.09424C18.2443 3.22014 18.026 2.86989 17.7607 2.66357C17.4419 2.4158 16.8529 2.21178 15.6172 2.10498C14.405 2.00022 12.7691 1.99951 10.5 1.99951ZM14.5 7.99951L8.5 11.4995V4.49951L14.5 7.99951Z" fill="#FEFFF3"/>
</svg>
