<svg width="430" height="727" viewBox="0 0 430 727" fill="none" xmlns="http://www.w3.org/2000/svg">
<g opacity="0.15" filter="url(#filter0_f_576_811)">
<path d="M480.102 601.445C479.046 648.489 299.483 686.137 259.538 665.454C249.152 660.076 239.649 649.081 230.229 632.053C213.374 600.037 212.989 598.825 216.296 592.437C217.95 589.243 222.856 583.682 229.387 576.938L335.812 475.095C219.069 508.817 137.673 546.665 92.1231 581.809C74.5749 570.698 39.7582 528.369 46.3733 515.593C48.027 512.399 52.1334 506.425 66.4081 492.552L237.648 330.1C128.921 365.947 34.4635 417.283 -66.861 499.491C-82.0124 489.621 -116.829 447.292 -110.214 434.516C-108.56 431.323 -103.655 425.762 -90.5927 412.274C-10.5653 328.152 71.8589 245.271 155.495 162.006C98.1014 180.891 41.5062 200.191 -8.22831 217.98C-17.6475 200.952 -20.6693 157.873 -14.0543 145.097C-11.5737 140.306 -7.52318 138.353 15.5116 131.041C95.1415 104.429 180.42 76.6919 264.402 55.3715C278.369 63.6158 313.571 107.157 306.956 119.933C305.302 123.127 301.196 129.101 287.334 142.175C237.18 190.124 187.412 239.285 138.856 288.061C233.973 247.192 327.682 220.782 374.053 213.402C390.774 226.11 404.076 253.249 406.305 266.554C407.791 275.424 407.349 278.233 379.214 305.18L249.999 425.6C334.121 394.227 420.969 369.327 469.765 361.178C488.084 374.713 501 400.64 503.229 413.945C504.715 422.814 505.072 426.037 476.138 452.571L350.203 568.614L324.519 592.781C366.812 589.364 415.72 573.172 453.085 547.966C470.851 572.353 480.242 591.392 480.102 601.445Z" fill="#FEFFF3"/>
</g>
</svg>
