<svg width="1440" height="1044" viewBox="0 0 1440 1044" fill="none" xmlns="http://www.w3.org/2000/svg">
<g opacity="0.15" filter="url(#filter0_f_1083_1821)">
<path d="M1432.74 680.212C1466.02 784.518 1099.43 1003.24 995.89 987.968C968.969 983.996 939.738 966.994 906.127 936.658C844.813 878.971 843.048 876.595 845.491 860.037C846.712 851.758 853.297 835.811 862.563 816.03L1019.65 511.41C788.307 673.956 637.862 818.83 564.238 930.627C517.219 919.461 408.58 852.677 413.466 819.561C414.688 811.282 419.202 795.029 440.11 753.703L693.934 266.677C481.84 427.834 312.862 612.27 152.139 869.827C111.333 859.577 2.69445 792.793 7.58032 759.677C8.80179 751.398 15.3864 735.451 33.9188 695.889C146.335 450.238 264.963 205.503 385.968 -40.9958C273.981 43.9929 164.064 129.287 68.0994 206.066C34.4886 175.729 -4.76252 83.2308 0.123349 50.1146C1.95555 37.696 9.38956 30.3336 54.5376 -3.18688C209.602 -122.002 376.242 -247.568 544.887 -358.034C581.857 -350.465 692.261 -281.306 687.375 -248.19C686.154 -239.911 681.64 -223.658 661.037 -184.402C586.974 -40.9474 514.676 104.882 444.755 248.948C623.104 87.0425 809.298 -41.9832 905.74 -93.3136C952.148 -78.0075 1001.95 -28.363 1016.93 -0.776187C1026.91 17.615 1028.06 24.1299 986.552 104.713L793.383 467.453C954.727 334.762 1126.97 214.252 1228.16 159.393C1278.71 175.31 1326.75 222.579 1341.73 250.166C1351.71 268.557 1354.93 275.377 1311.35 355.655L1122.09 706.283L1083.87 778.892C1174.33 739.369 1269.69 666.73 1332.82 582.993C1390.37 623.205 1425.44 657.987 1432.74 680.212Z" fill="#FEFFF3"/>
</g>
</svg>
