<svg width="16" height="16" viewBox="0 0 16 16" fill="none" xmlns="http://www.w3.org/2000/svg">
<path d="M8 8C8.55 8 9.021 7.804 9.413 7.412C9.805 7.02 10 6.55 10 6C10 5.45 9.805 4.979 9.413 4.587C9.021 4.195 8.55 4 8 4C7.45 4 6.979 4.195 6.587 4.587C6.195 4.979 6 5.45 6 6C6 6.55 6.195 7.02 6.587 7.412C6.979 7.804 7.45 8 8 8ZM8 14C5.783 12.017 4.271 10.208 3.463 8.575C2.655 6.942 2.25 5.5 2.25 4.25C2.25 2.75 2.771 1.562 3.812 0.688C4.854 -0.187 6.283 -0.625 8 -0.625C9.717 -0.625 11.146 -0.187 12.188 0.688C13.229 1.562 13.75 2.75 13.75 4.25C13.75 5.5 13.346 6.942 12.538 8.575C11.729 10.208 10.217 12.017 8 14Z" fill="currentColor"/>
</svg>