<svg width="50" height="51" viewBox="0 0 50 51" fill="none" xmlns="http://www.w3.org/2000/svg">
<path d="M19.3362 33.4436C18.9457 33.8341 18.3126 33.8341 17.922 33.4436L17.408 32.9296C17.0175 32.5391 17.0175 31.9059 17.408 31.5154L28.2702 20.6532L18.665 20.6532C18.1128 20.6532 17.665 20.2055 17.665 19.6532L17.665 18.9151C17.665 18.3628 18.1128 17.9151 18.665 17.9151L31.9365 17.9151C32.4888 17.9151 32.9365 18.3628 32.9365 18.9151L32.9365 32.1866C32.9365 32.7389 32.4888 33.1866 31.9365 33.1866L31.1985 33.1866C30.6462 33.1866 30.1985 32.7389 30.1984 32.1866L30.1985 22.5814L19.3362 33.4436Z" fill="#06104A"/>
</svg>
