<svg width="24" height="24" viewBox="0 0 24 24" fill="none" xmlns="http://www.w3.org/2000/svg">
<circle cx="12" cy="12" r="11" fill="#06104A" stroke="#06104A" stroke-width="2"/>
<path d="M17.146 12.5772C17.5242 13.2187 15.4739 15.6273 14.7601 15.6807C14.5744 15.6946 14.3539 15.6256 14.0842 15.4748C13.5886 15.1841 13.5733 15.171 13.5648 15.0576C13.5606 15.001 13.5806 14.8854 13.6129 14.7405L14.1372 12.5077C13.1304 13.7944 12.2651 15.0576 11.7936 15.9456C11.4631 15.9419 10.6381 15.6616 10.6211 15.4348C10.6169 15.3782 10.6226 15.2637 10.7003 14.9586L11.5964 11.2149C10.5185 12.7175 9.72985 14.1638 8.95241 15.9526C8.66475 15.9457 7.83975 15.6654 7.82277 15.4387C7.81853 15.382 7.83859 15.2665 7.90303 14.9766C8.28541 13.1808 8.24547 12.7226 8.68391 10.9084C8.06382 11.6389 7.45801 12.3683 6.93255 13.0205C6.66283 12.8697 6.26239 12.3153 6.24541 12.0886C6.23904 12.0035 6.27762 11.9436 6.52873 11.6541C7.38564 10.6351 8.97548 8.63724 9.26973 8.57002C9.56399 8.50279 10.3681 8.85831 10.3851 9.08506C10.3893 9.14175 10.3684 9.25251 10.3048 9.54711C10.1756 10.1459 10.0727 10.6946 9.97551 11.6068C10.9233 10.2674 11.9325 8.6865 12.2651 8.7186C12.5977 8.75069 13.073 8.93669 13.2142 9.09713C13.3084 9.20409 13.3258 9.24554 13.1695 9.84156L12.6292 12.5339C13.5648 11.2149 14.6988 8.79156 15.0603 8.79156C15.4218 8.79156 15.8128 9.06299 15.9541 9.22344C16.0482 9.3304 16.065 9.80302 15.9541 10.2145C15.8431 10.6259 15.1804 13.6255 15.1804 13.6255L15.0341 14.1638C15.5787 13.7667 16.1545 12.5438 16.4505 11.8946C16.8947 12.0751 17.064 12.4408 17.146 12.5772Z" fill="#F4F9BE"/>
</svg>
