<svg width="16" height="16" viewBox="0 0 16 16" fill="none" xmlns="http://www.w3.org/2000/svg">
<path d="M12 10C11.333 10 10.75 10.25 10.25 10.75L6.4 8.45C6.467 8.133 6.5 7.8 6.5 7.45C6.5 7.117 6.467 6.783 6.4 6.45L10.2 4.2C10.717 4.717 11.333 5 12 5C13.1 5 14 4.1 14 3C14 1.9 13.1 1 12 1C10.9 1 10 1.9 10 3C10 3.333 10.033 3.667 10.1 4L6.3 6.25C5.783 5.733 5.167 5.45 4.5 5.45C3.4 5.45 2.5 6.35 2.5 7.45C2.5 8.55 3.4 9.45 4.5 9.45C5.167 9.45 5.783 9.167 6.3 8.65L10.1 10.9C10.033 11.233 10 11.567 10 11.9C10 12.983 10.883 13.867 11.967 13.867C13.05 13.867 13.933 12.983 13.933 11.9C13.933 10.817 13.05 9.933 11.967 9.933C11.3 9.933 10.683 10.217 10.167 10.733L6.367 8.483C6.433 8.167 6.467 7.833 6.467 7.483C6.467 7.15 6.433 6.817 6.367 6.483L10.167 4.233C10.683 4.75 11.3 5.033 11.967 5.033L12 10Z" fill="currentColor"/>
</svg>