<svg width="13" height="17" viewBox="0 0 13 17" fill="none" xmlns="http://www.w3.org/2000/svg">
<path d="M6.40046 0.25C9.92943 0.25 12.8009 3.12142 12.8009 6.65039C12.824 11.8023 7.10808 15.9292 6.86433 16.1016C6.72883 16.198 6.56679 16.25 6.40046 16.25C6.23416 16.25 6.07207 16.198 5.93659 16.1016C5.69129 15.928 -0.0229984 11.8016 6.9653e-05 6.64648C6.9653e-05 3.12154 2.87152 0.250043 6.40046 0.25ZM6.40046 1.84961C3.75317 1.84965 1.60066 4.00309 1.60066 6.65039C1.58391 10.2032 5.11148 13.3919 6.40046 14.4385C7.69017 13.3928 11.218 10.2048 11.2012 6.6543C11.2012 4.00297 9.04778 1.84961 6.40046 1.84961ZM6.40046 3.4502C8.16531 3.45024 9.60066 4.88553 9.60066 6.65039C9.60061 8.41521 8.16528 9.85054 6.40046 9.85059C4.6356 9.85059 3.20031 8.41524 3.20026 6.65039C3.20026 4.8855 4.63557 3.4502 6.40046 3.4502ZM6.40046 5.0498C5.51802 5.0498 4.79987 5.76795 4.79987 6.65039C4.79992 7.5328 5.51804 8.25 6.40046 8.25C7.28284 8.24996 8.00003 7.53277 8.00007 6.65039C8.00007 5.76797 7.28287 5.04985 6.40046 5.0498Z" fill="#06104A"/>
</svg>
