<svg width="16" height="12" viewBox="0 0 16 12" fill="none" xmlns="http://www.w3.org/2000/svg">
<path d="M9.8967 9.80769L9.98698 9.81182C10.4353 9.85506 10.7856 10.2157 10.7856 10.6538C10.7856 11.092 10.4353 11.4526 9.98698 11.4959L9.8967 11.5H6.1033C5.61257 11.4998 5.21441 11.121 5.21441 10.6538C5.21441 10.1867 5.61257 9.8079 6.1033 9.80769H9.8967ZM12.7405 5.15385L12.8316 5.15798C13.2799 5.20129 13.6293 5.56187 13.6293 6C13.6293 6.43813 13.2799 6.79871 12.8316 6.84202L12.7405 6.84615H3.25955C2.76863 6.84615 2.37066 6.46732 2.37066 6C2.37066 5.53268 2.76863 5.15385 3.25955 5.15385H12.7405ZM15.1111 0.5L15.2023 0.504132C15.6504 0.547566 16 0.908119 16 1.34615C16 1.78419 15.6504 2.14474 15.2023 2.18818L15.1111 2.19231H0.888889C0.397969 2.19231 0 1.81347 0 1.34615C0 0.878836 0.397969 0.5 0.888889 0.5H15.1111Z" fill="#FEFFF3"/>
</svg>
