<svg width="18" height="16" viewBox="0 0 18 16" fill="none" xmlns="http://www.w3.org/2000/svg">
<path d="M8.6026 13.404L4.48232 15.85C4.3003 15.9641 4.11 16.013 3.91144 15.9967C3.71287 15.9804 3.53912 15.9152 3.3902 15.801C3.24127 15.6869 3.12544 15.5444 3.0427 15.3735C2.95997 15.2026 2.94342 15.0108 2.99306 14.7982L4.08518 10.1753L0.436498 7.06889C0.271025 6.92213 0.16777 6.75483 0.126732 6.56697C0.0856948 6.37912 0.0979398 6.19584 0.163467 6.01712C0.228995 5.8384 0.328279 5.69164 0.461319 5.57684C0.59436 5.46204 0.77638 5.38866 1.00738 5.3567L5.82265 4.94089L7.68423 0.587036C7.76696 0.391357 7.89537 0.244598 8.06945 0.146759C8.24353 0.0489195 8.42125 0 8.6026 0C8.78396 0 8.96168 0.0489195 9.13576 0.146759C9.30984 0.244598 9.43824 0.391357 9.52098 0.587036L11.3826 4.94089L16.1978 5.3567C16.4295 5.38932 16.6115 5.46269 16.7439 5.57684C16.8763 5.69099 16.9756 5.83775 17.0417 6.01712C17.1079 6.19649 17.1205 6.3801 17.0795 6.56795C17.0384 6.7558 16.9348 6.92278 16.7687 7.06889L13.12 10.1753L14.2121 14.7982C14.2618 15.0102 14.2452 15.2019 14.1625 15.3735C14.0798 15.545 13.9639 15.6876 13.815 15.801C13.6661 15.9145 13.4923 15.9798 13.2938 15.9967C13.0952 16.0137 12.9049 15.9648 12.7229 15.85L8.6026 13.404Z" fill="#06104A"/>
</svg>
